<svg width="69" height="73" viewBox="0 0 69 73" fill="none" xmlns="http://www.w3.org/2000/svg">
<g filter="url(#filter0_d_200_1269)">
<rect x="12" y="8.54199" width="45" height="48" rx="22.5" fill="white" shape-rendering="crispEdges"/>
<path fill-rule="evenodd" clip-rule="evenodd" d="M29.965 21.608C31.138 21.554 31.512 21.542 34.5 21.542C37.488 21.542 37.862 21.555 39.034 21.608C40.206 21.661 41.006 21.848 41.706 22.119C42.439 22.396 43.104 22.829 43.654 23.389C44.214 23.938 44.646 24.602 44.922 25.336C45.194 26.036 45.38 26.836 45.434 28.006C45.488 29.181 45.5 29.555 45.5 32.542C45.5 35.53 45.487 35.904 45.434 37.077C45.381 38.247 45.194 39.047 44.922 39.747C44.646 40.4811 44.2133 41.1462 43.654 41.696C43.104 42.256 42.439 42.688 41.706 42.964C41.006 43.236 40.206 43.422 39.036 43.476C37.862 43.53 37.488 43.542 34.5 43.542C31.512 43.542 31.138 43.529 29.965 43.476C28.795 43.423 27.995 43.236 27.295 42.964C26.5609 42.688 25.8958 42.2552 25.346 41.696C24.7864 41.1467 24.3533 40.4819 24.077 39.748C23.806 39.048 23.62 38.248 23.566 37.078C23.512 35.903 23.5 35.529 23.5 32.542C23.5 29.554 23.513 29.18 23.566 28.008C23.619 26.836 23.806 26.036 24.077 25.336C24.3537 24.6021 24.7871 23.9373 25.347 23.388C25.896 22.8285 26.5605 22.3954 27.294 22.119C27.994 21.848 28.794 21.662 29.964 21.608H29.965ZM38.945 23.588C37.785 23.535 37.437 23.524 34.5 23.524C31.563 23.524 31.215 23.535 30.055 23.588C28.982 23.637 28.4 23.816 28.012 23.967C27.499 24.167 27.132 24.404 26.747 24.789C26.382 25.144 26.1012 25.5763 25.925 26.054C25.774 26.442 25.595 27.024 25.546 28.097C25.493 29.257 25.482 29.605 25.482 32.542C25.482 35.479 25.493 35.827 25.546 36.987C25.595 38.06 25.774 38.642 25.925 39.03C26.101 39.507 26.382 39.94 26.747 40.295C27.102 40.66 27.535 40.941 28.012 41.117C28.4 41.268 28.982 41.447 30.055 41.496C31.215 41.549 31.562 41.56 34.5 41.56C37.438 41.56 37.785 41.549 38.945 41.496C40.018 41.447 40.6 41.268 40.988 41.117C41.501 40.917 41.868 40.68 42.253 40.295C42.618 39.94 42.899 39.507 43.075 39.03C43.226 38.642 43.405 38.06 43.454 36.987C43.507 35.827 43.518 35.479 43.518 32.542C43.518 29.605 43.507 29.257 43.454 28.097C43.405 27.024 43.226 26.442 43.075 26.054C42.875 25.541 42.638 25.174 42.253 24.789C41.8979 24.4241 41.4657 24.1432 40.988 23.967C40.6 23.816 40.018 23.637 38.945 23.588ZM33.095 35.933C33.8797 36.2596 34.7534 36.3037 35.5669 36.0577C36.3805 35.8117 37.0834 35.2909 37.5556 34.5842C38.0278 33.8776 38.2401 33.0289 38.156 32.1831C38.072 31.3373 37.697 30.547 37.095 29.947C36.7112 29.5635 36.2472 29.2698 35.7363 29.0871C35.2255 28.9045 34.6804 28.8374 34.1405 28.8906C33.6006 28.9439 33.0792 29.1162 32.6138 29.3951C32.1485 29.6741 31.7507 30.0527 31.4493 30.5038C31.1479 30.955 30.9502 31.4673 30.8705 32.004C30.7908 32.5406 30.8312 33.0883 30.9885 33.6075C31.1459 34.1267 31.4165 34.6046 31.7807 35.0067C32.145 35.4088 32.5938 35.7252 33.095 35.933ZM30.502 28.544C31.027 28.019 31.6503 27.6025 32.3363 27.3184C33.0223 27.0342 33.7575 26.888 34.5 26.888C35.2425 26.888 35.9777 27.0342 36.6637 27.3184C37.3497 27.6025 37.973 28.019 38.498 28.544C39.023 29.069 39.4395 29.6923 39.7236 30.3783C40.0078 31.0643 40.154 31.7995 40.154 32.542C40.154 33.2845 40.0078 34.0197 39.7236 34.7057C39.4395 35.3917 39.023 36.015 38.498 36.54C37.4377 37.6003 35.9995 38.196 34.5 38.196C33.0005 38.196 31.5623 37.6003 30.502 36.54C29.4417 35.4797 28.846 34.0415 28.846 32.542C28.846 31.0425 29.4417 29.6043 30.502 28.544ZM41.408 27.73C41.5381 27.6073 41.6423 27.4597 41.7143 27.296C41.7863 27.1323 41.8248 26.9558 41.8274 26.7769C41.83 26.5981 41.7967 26.4205 41.7295 26.2548C41.6622 26.0891 41.5624 25.9385 41.436 25.812C41.3095 25.6856 41.1589 25.5857 40.9932 25.5185C40.8275 25.4513 40.6499 25.418 40.4711 25.4206C40.2922 25.4232 40.1157 25.4616 39.952 25.5337C39.7883 25.6057 39.6407 25.7099 39.518 25.84C39.2793 26.093 39.1486 26.4291 39.1537 26.7769C39.1588 27.1247 39.2992 27.4569 39.5452 27.7028C39.7911 27.9488 40.1233 28.0892 40.4711 28.0943C40.8189 28.0994 41.155 27.9687 41.408 27.73Z" fill="#1D1D1D"/>
</g>
<defs>
<filter id="filter0_d_200_1269" x="0" y="0.541992" width="69" height="72" filterUnits="userSpaceOnUse" color-interpolation-filters="sRGB">
<feFlood flood-opacity="0" result="BackgroundImageFix"/>
<feColorMatrix in="SourceAlpha" type="matrix" values="0 0 0 0 0 0 0 0 0 0 0 0 0 0 0 0 0 0 127 0" result="hardAlpha"/>
<feOffset dy="4"/>
<feGaussianBlur stdDeviation="6"/>
<feComposite in2="hardAlpha" operator="out"/>
<feColorMatrix type="matrix" values="0 0 0 0 0.1125 0 0 0 0 0.1125 0 0 0 0 0.1125 0 0 0 0.15 0"/>
<feBlend mode="normal" in2="BackgroundImageFix" result="effect1_dropShadow_200_1269"/>
<feBlend mode="normal" in="SourceGraphic" in2="effect1_dropShadow_200_1269" result="shape"/>
</filter>
</defs>
</svg>
