<svg width="69" height="73" viewBox="0 0 69 73" fill="none" xmlns="http://www.w3.org/2000/svg">
<g filter="url(#filter0_d_200_1272)">
<rect x="12" y="8.54199" width="45" height="48" rx="22.5" fill="white" shape-rendering="crispEdges"/>
<path d="M45.853 25.502C45.018 25.872 44.121 26.122 43.178 26.235C44.151 25.6528 44.8789 24.7365 45.226 23.657C44.3118 24.2 43.3113 24.5822 42.268 24.787C41.5664 24.0379 40.637 23.5413 39.6243 23.3745C38.6116 23.2076 37.5721 23.3798 36.6672 23.8643C35.7624 24.3487 35.0427 25.1184 34.6201 26.0537C34.1975 26.9891 34.0955 28.0378 34.33 29.037C32.4777 28.944 30.6656 28.4626 29.0114 27.6239C27.3572 26.7853 25.8978 25.6082 24.728 24.169C24.328 24.859 24.098 25.659 24.098 26.511C24.0975 27.278 24.2864 28.0333 24.6479 28.7098C25.0093 29.3862 25.5321 29.9631 26.17 30.389C25.4302 30.3655 24.7068 30.1656 24.06 29.806V29.866C24.0599 30.9418 24.432 31.9844 25.1132 32.817C25.7943 33.6496 26.7425 34.2209 27.797 34.434C27.1108 34.6197 26.3913 34.6471 25.693 34.514C25.9905 35.4396 26.57 36.249 27.3503 36.8289C28.1307 37.4088 29.0729 37.7302 30.045 37.748C28.3948 39.0434 26.3569 39.7461 24.259 39.743C23.8874 39.7431 23.516 39.7214 23.147 39.678C25.2764 41.0472 27.7553 41.7738 30.287 41.771C38.857 41.771 43.542 34.673 43.542 28.517C43.542 28.317 43.537 28.115 43.528 27.915C44.4393 27.256 45.2259 26.4399 45.851 25.505L45.853 25.502Z" fill="#1D1D1D"/>
</g>
<defs>
<filter id="filter0_d_200_1272" x="0" y="0.541992" width="69" height="72" filterUnits="userSpaceOnUse" color-interpolation-filters="sRGB">
<feFlood flood-opacity="0" result="BackgroundImageFix"/>
<feColorMatrix in="SourceAlpha" type="matrix" values="0 0 0 0 0 0 0 0 0 0 0 0 0 0 0 0 0 0 127 0" result="hardAlpha"/>
<feOffset dy="4"/>
<feGaussianBlur stdDeviation="6"/>
<feComposite in2="hardAlpha" operator="out"/>
<feColorMatrix type="matrix" values="0 0 0 0 0.1125 0 0 0 0 0.1125 0 0 0 0 0.1125 0 0 0 0.15 0"/>
<feBlend mode="normal" in2="BackgroundImageFix" result="effect1_dropShadow_200_1272"/>
<feBlend mode="normal" in="SourceGraphic" in2="effect1_dropShadow_200_1272" result="shape"/>
</filter>
</defs>
</svg>
