<svg width="47" height="47" viewBox="0 0 47 47" fill="none" xmlns="http://www.w3.org/2000/svg">
<path d="M19.0996 10.835C19.5835 10.835 20.0478 10.644 20.3916 10.3035C20.7354 9.96297 20.9309 9.50051 20.9355 9.01665C20.9402 8.53248 20.7535 8.06605 20.416 7.71889C20.0785 7.37174 19.6175 7.17197 19.1334 7.16309M18.941 14.4892C18.4571 14.4892 17.9927 14.2982 17.6489 13.9577C17.3051 13.6172 17.1097 13.1548 17.105 12.6709C17.1003 12.1867 17.287 11.7203 17.6245 11.3731C17.9621 11.026 18.4231 10.8262 18.9072 10.8173M19.0996 18.1611C19.5835 18.1611 20.0478 17.9701 20.3916 17.6296C20.7354 17.2891 20.9309 16.8266 20.9355 16.3428C20.9402 15.8586 20.7535 15.3922 20.416 15.045C20.0785 14.6979 19.6175 14.4981 19.1334 14.4892M26.4433 10.835C26.9272 10.835 27.3915 10.644 27.7353 10.3035C28.0791 9.96297 28.2746 9.50051 28.2793 9.01665C28.284 8.53248 28.0973 8.06605 27.7597 7.71889C27.4222 7.37174 26.9612 7.17197 26.4771 7.16309M26.2847 14.4892C25.8008 14.4892 25.3365 14.2982 24.9927 13.9577C24.6489 13.6172 24.4534 13.1548 24.4488 12.6709C24.444 12.1867 24.6308 11.7203 24.9683 11.3731C25.3058 11.026 25.7668 10.8262 26.2509 10.8173M26.4433 18.1611C26.9272 18.1611 27.3915 17.9701 27.7353 17.6296C28.0791 17.2891 28.2746 16.8266 28.2793 16.3428C28.284 15.8586 28.0973 15.3922 27.7597 15.045C27.4222 14.6979 26.9612 14.4981 26.4771 14.4892M12.3242 10.835C12.8081 10.835 13.2724 10.644 13.6162 10.3035C13.9601 9.96297 14.1555 9.50051 14.1602 9.01665C14.1649 8.53273 13.9784 8.06651 13.6412 7.7194C13.304 7.37229 12.8433 7.17235 12.3595 7.16309M12.1671 14.4892C11.6832 14.4892 11.2189 14.2982 10.8751 13.9577C10.5313 13.6172 10.3358 13.1548 10.3311 12.6709C10.3264 12.187 10.5129 11.7208 10.8501 11.3737C11.1874 11.0265 11.648 10.8266 12.1318 10.8173M12.3242 18.1611C12.8081 18.1611 13.2724 17.9701 13.6162 17.6296C13.9601 17.2891 14.1555 16.8266 14.1602 16.3428C14.1649 15.8589 13.9784 15.3926 13.6412 15.0455C13.304 14.6984 12.8433 14.4985 12.3595 14.4892" stroke="#FAA41A" stroke-linecap="round" stroke-linejoin="round"/>
<path d="M13.0396 39.8368H26.2554V35.4658C23.4398 36.7084 21.7992 36.9023 19.5167 36.9493C16.663 37.008 14.7286 36.5145 13.0396 36.0915V39.8368Z" stroke="#383747" stroke-linecap="round" stroke-linejoin="round"/>
<path d="M36.281 24.0127C33.8135 33.2276 24.3826 38.6958 15.1677 36.2268C12.2433 35.446 9.57652 33.9079 7.43624 31.7676C5.29596 29.6274 3.75786 26.9606 2.97705 24.0362L36.281 24.0127Z" fill="#FAA41A" stroke="#383747" stroke-linecap="round" stroke-linejoin="round"/>
<path d="M2.96826 21.0679H36.2868V24.092H2.96826V21.0679Z" stroke="#383747" stroke-linecap="round" stroke-linejoin="round"/>
<path d="M24.4897 21.0589C35.946 21.5113 33.0658 13.348 41.5331 12.6106C42.3703 12.5372 42.8109 12.521 43.9859 12.596L44.03 12.5813C42.5686 11.7118 39.8749 10.2401 37.6262 10.8643C36.4762 11.1845 34.6843 12.4212 33.4844 14.7785C30.4632 21.3938 27.5212 21.0457 25.1272 21.0574L24.4897 21.0589Z" stroke="#383747" stroke-linecap="round" stroke-linejoin="round"/>
<path d="M31.5398 26.6079C30.4999 29.7804 27.7166 31.9835 24.4854 32.5828" stroke="white" stroke-linecap="round" stroke-linejoin="round"/>
</svg>
